<mxfile host="Electron" modified="2023-04-12T16:11:03.106Z" agent="Mozilla/5.0 (Windows NT 10.0; Win64; x64) AppleWebKit/537.36 (KHTML, like Gecko) draw.io/21.1.2 Chrome/106.0.5249.199 Electron/21.4.3 Safari/537.36" etag="s5UkbzZpX0tObYLBLG4U" version="21.1.2" type="device">
  <diagram id="C5RBs43oDa-KdzZeNtuy" name="Page-1">
    <mxGraphModel dx="2234" dy="1637" grid="1" gridSize="10" guides="1" tooltips="1" connect="1" arrows="1" fold="1" page="0" pageScale="1" pageWidth="1600" pageHeight="900" background="none" math="0" shadow="1">
      <root>
        <mxCell id="WIyWlLk6GJQsqaUBKTNV-0" />
        <mxCell id="WIyWlLk6GJQsqaUBKTNV-1" parent="WIyWlLk6GJQsqaUBKTNV-0" />
        <mxCell id="41qfXQSUIJDeYp5ECm9Y-423" value="服务器&lt;br style=&quot;font-size: 20px;&quot;&gt;" style="image;html=1;image=img/lib/clip_art/networking/UPS_128x128.png;labelBorderColor=default;fontSize=20;" vertex="1" parent="WIyWlLk6GJQsqaUBKTNV-1">
          <mxGeometry x="-230" y="-800" width="80" height="80" as="geometry" />
        </mxCell>
        <mxCell id="41qfXQSUIJDeYp5ECm9Y-426" value="A客户端" style="image;html=1;image=img/lib/clip_art/computers/iMac_128x128.png" vertex="1" parent="WIyWlLk6GJQsqaUBKTNV-1">
          <mxGeometry x="-420" y="-650" width="80" height="80" as="geometry" />
        </mxCell>
        <mxCell id="41qfXQSUIJDeYp5ECm9Y-427" value="B客户端" style="image;html=1;image=img/lib/clip_art/computers/iMac_128x128.png" vertex="1" parent="WIyWlLk6GJQsqaUBKTNV-1">
          <mxGeometry x="-60" y="-660" width="80" height="80" as="geometry" />
        </mxCell>
        <mxCell id="41qfXQSUIJDeYp5ECm9Y-431" value="" style="endArrow=classic;startArrow=classic;html=1;rounded=0;entryX=0.25;entryY=0;entryDx=0;entryDy=0;fillColor=#fff2cc;strokeColor=#d6b656;exitX=1;exitY=0.75;exitDx=0;exitDy=0;" edge="1" parent="WIyWlLk6GJQsqaUBKTNV-1" source="41qfXQSUIJDeYp5ECm9Y-423" target="41qfXQSUIJDeYp5ECm9Y-427">
          <mxGeometry width="50" height="50" relative="1" as="geometry">
            <mxPoint x="-150" y="-760" as="sourcePoint" />
            <mxPoint x="-100" y="-810" as="targetPoint" />
          </mxGeometry>
        </mxCell>
        <mxCell id="41qfXQSUIJDeYp5ECm9Y-442" value="交换打洞数据" style="edgeLabel;html=1;align=center;verticalAlign=middle;resizable=0;points=[];" vertex="1" connectable="0" parent="41qfXQSUIJDeYp5ECm9Y-431">
          <mxGeometry x="0.1357" y="4" relative="1" as="geometry">
            <mxPoint as="offset" />
          </mxGeometry>
        </mxCell>
        <mxCell id="41qfXQSUIJDeYp5ECm9Y-432" value="" style="endArrow=classic;startArrow=classic;html=1;rounded=0;entryX=0;entryY=0.75;entryDx=0;entryDy=0;fillColor=#fff2cc;strokeColor=#d6b656;" edge="1" parent="WIyWlLk6GJQsqaUBKTNV-1" target="41qfXQSUIJDeYp5ECm9Y-423">
          <mxGeometry width="50" height="50" relative="1" as="geometry">
            <mxPoint x="-370" y="-640" as="sourcePoint" />
            <mxPoint x="-320" y="-690" as="targetPoint" />
          </mxGeometry>
        </mxCell>
        <mxCell id="41qfXQSUIJDeYp5ECm9Y-441" value="交换打洞数据" style="edgeLabel;html=1;align=center;verticalAlign=middle;resizable=0;points=[];" vertex="1" connectable="0" parent="41qfXQSUIJDeYp5ECm9Y-432">
          <mxGeometry x="-0.1788" y="2" relative="1" as="geometry">
            <mxPoint as="offset" />
          </mxGeometry>
        </mxCell>
        <mxCell id="41qfXQSUIJDeYp5ECm9Y-436" value="" style="endArrow=classic;startArrow=classic;html=1;rounded=0;exitX=1;exitY=0.5;exitDx=0;exitDy=0;" edge="1" parent="WIyWlLk6GJQsqaUBKTNV-1" source="41qfXQSUIJDeYp5ECm9Y-426">
          <mxGeometry width="50" height="50" relative="1" as="geometry">
            <mxPoint x="-280" y="-540" as="sourcePoint" />
            <mxPoint x="-50" y="-610" as="targetPoint" />
          </mxGeometry>
        </mxCell>
        <mxCell id="41qfXQSUIJDeYp5ECm9Y-439" value="打洞" style="edgeLabel;html=1;align=center;verticalAlign=middle;resizable=0;points=[];" vertex="1" connectable="0" parent="41qfXQSUIJDeYp5ECm9Y-436">
          <mxGeometry x="-0.1586" y="-2" relative="1" as="geometry">
            <mxPoint x="28" y="-2" as="offset" />
          </mxGeometry>
        </mxCell>
        <mxCell id="41qfXQSUIJDeYp5ECm9Y-437" value="" style="endArrow=classic;startArrow=classic;html=1;rounded=0;exitX=1.006;exitY=0.925;exitDx=0;exitDy=0;entryX=0.125;entryY=1;entryDx=0;entryDy=0;entryPerimeter=0;exitPerimeter=0;" edge="1" parent="WIyWlLk6GJQsqaUBKTNV-1" source="41qfXQSUIJDeYp5ECm9Y-426" target="41qfXQSUIJDeYp5ECm9Y-427">
          <mxGeometry width="50" height="50" relative="1" as="geometry">
            <mxPoint x="-290" y="-550" as="sourcePoint" />
            <mxPoint x="-240" y="-600" as="targetPoint" />
            <Array as="points" />
          </mxGeometry>
        </mxCell>
        <mxCell id="41qfXQSUIJDeYp5ECm9Y-440" value="节点中继，数据经过其它节点，任意节点数" style="edgeLabel;html=1;align=center;verticalAlign=middle;resizable=0;points=[];" vertex="1" connectable="0" parent="41qfXQSUIJDeYp5ECm9Y-437">
          <mxGeometry x="-0.0913" y="1" relative="1" as="geometry">
            <mxPoint x="28" y="-1" as="offset" />
          </mxGeometry>
        </mxCell>
        <mxCell id="41qfXQSUIJDeYp5ECm9Y-444" value="XX客户端" style="image;html=1;image=img/lib/clip_art/computers/iMac_128x128.png" vertex="1" parent="WIyWlLk6GJQsqaUBKTNV-1">
          <mxGeometry x="-215" y="-570" width="50" height="40" as="geometry" />
        </mxCell>
        <mxCell id="41qfXQSUIJDeYp5ECm9Y-447" value="" style="rounded=1;whiteSpace=wrap;html=1;absoluteArcSize=1;arcSize=14;strokeWidth=2;" vertex="1" parent="WIyWlLk6GJQsqaUBKTNV-1">
          <mxGeometry x="-590" y="-780" width="100" height="300" as="geometry" />
        </mxCell>
        <mxCell id="41qfXQSUIJDeYp5ECm9Y-450" value="" style="rounded=1;whiteSpace=wrap;html=1;" vertex="1" parent="WIyWlLk6GJQsqaUBKTNV-1">
          <mxGeometry x="-580" y="-770" width="80" height="30" as="geometry" />
        </mxCell>
        <mxCell id="41qfXQSUIJDeYp5ECm9Y-451" value="" style="endArrow=classic;startArrow=classic;html=1;rounded=0;exitX=1;exitY=0.25;exitDx=0;exitDy=0;entryX=0;entryY=0.25;entryDx=0;entryDy=0;" edge="1" parent="WIyWlLk6GJQsqaUBKTNV-1" source="41qfXQSUIJDeYp5ECm9Y-426" target="41qfXQSUIJDeYp5ECm9Y-427">
          <mxGeometry width="50" height="50" relative="1" as="geometry">
            <mxPoint x="-300" y="-610" as="sourcePoint" />
            <mxPoint x="-250" y="-660" as="targetPoint" />
          </mxGeometry>
        </mxCell>
        <mxCell id="41qfXQSUIJDeYp5ECm9Y-452" value="服务器中继，数据经过服务器" style="edgeLabel;html=1;align=center;verticalAlign=middle;resizable=0;points=[];" vertex="1" connectable="0" parent="41qfXQSUIJDeYp5ECm9Y-451">
          <mxGeometry x="0.0897" y="2" relative="1" as="geometry">
            <mxPoint as="offset" />
          </mxGeometry>
        </mxCell>
      </root>
    </mxGraphModel>
  </diagram>
</mxfile>
